<?xml version="1.0" encoding="UTF-8"?>
<svg width="29px" height="29px" viewBox="0 0 29 29" version="1.1" xmlns="http://www.w3.org/2000/svg" xmlns:xlink="http://www.w3.org/1999/xlink">
    <!-- Generator: Sketch 50.2 (55047) - http://www.bohemiancoding.com/sketch -->
    <title>Group 3</title>
    <desc>Created with Sketch.</desc>
    <defs></defs>
    <g id="Page-1" stroke="none" stroke-width="1" fill="none" fill-rule="evenodd">
        <g id="Empty-Bag" transform="translate(-83.000000, -240.000000)" fill="#373737" fill-rule="nonzero" stroke="#373737" stroke-width="0.5">
            <g id="Group-3" transform="translate(84.000000, 241.000000)">
                <path d="M1.48396645,6.08153281 C1.59836699,6.17053628 1.74207959,6.18600495 1.86860757,6.12454041 C1.99513554,6.06354461 2.08812894,5.93252963 2.11960136,5.77403431 C2.20758667,5.31852872 2.54195047,5.00001465 2.93282715,5.00001465 C3.08532847,5.00001465 3.23449106,5.04952613 3.36352308,5.14351004 C3.56129362,5.28653669 3.81935767,5.21153705 3.93876629,4.97552258 C4.0594515,4.73903936 3.99616296,4.43154086 3.79799962,4.28851422 C3.53782433,4.10001904 3.23822258,4 2.93282715,4 C2.31192192,4 1.76093359,4.40101367 1.4722809,5.02251454 C1.40148022,5.00751461 1.32940298,5.00001465 1.25693294,5.00001465 C0.563950458,5.00001465 0,5.67301917 0,6.50000732 C0,7.32699547 0.563950458,8 1.25693294,8 L2.51386587,8 C2.74556379,8 2.93282715,7.77599719 2.93282715,7.50002197 C2.93282715,7.22404676 2.74556379,7.00004395 2.51386587,7.00004395 L1.25688384,7.00004395 C1.02562782,7.00004395 0.837922559,6.77557238 0.837922559,6.50006592 C0.837922559,6.1290521 1.21038714,5.87153383 1.48396645,6.08153281 Z" id="Shape"></path>
                <path d="M22.8519626,2.3550126 C22.9974512,2.21198805 23.3039559,2 23.4999524,2 C23.9029612,2 23.9939575,2.2749751 23.9999341,2.4999707 C23.9994654,2.50049804 23.9994654,2.50096678 23.9999341,2.50249019 C23.9994654,2.50301752 23.9994654,2.50401359 23.9999341,2.50448233 L23.9999341,2.50547841 L23.9999341,2.50647448 L23.9999341,2.50700182 C23.9999341,2.50700182 23.9999341,2.50700182 23.9999341,2.50752915 C24.0039185,2.78004336 24.2259308,3 24.4999158,3 C24.7744282,3 24.9974365,2.77898869 24.9998975,2.50500967 C25.0058741,2.27450636 25.0978665,2 25.4998792,2 C25.6958757,2 26.0023804,2.21198805 26.1464042,2.35348919 C26.341932,2.54901271 26.6579289,2.54901271 26.8533981,2.35348919 C27.0488673,2.15802426 27.0488673,1.84197574 26.8533981,1.64651081 C26.7874214,1.58053554 26.1874199,1 25.4998792,1 C25.0618898,1 24.7348773,1.14196988 24.4998572,1.35149704 C24.2648371,1.14196988 23.9378832,1 23.4998353,1 C22.8123531,1 22.2123517,1.58047694 22.1463163,1.64651081 C21.9513159,1.84097967 21.9513159,2.15597352 22.145789,2.35149704 C22.3389731,2.54655183 22.6549699,2.54854397 22.8519626,2.3550126 Z" id="Shape"></path>
                <path d="M26.0736021,17.0395284 C25.7483808,15.8379721 24.8359987,15 23.8000063,15 C23.5788014,15 23.4000188,15.22401 23.4000188,15.4999941 C23.4000188,15.7759782 23.5788014,15.9999883 23.8000063,15.9999883 C24.5588247,15.9999883 25.218408,16.6744794 25.3680341,17.6035087 C25.4076438,17.8484959 25.5924265,18.0215279 25.7836311,18.0040079 C25.7980687,18.003129 25.8123657,18.0011953 25.8052407,18.0003164 C26.023633,18.0038321 26.200025,18.2266703 26.200025,18.5000176 C26.200025,18.7755329 26.0208205,19.0000117 25.8000375,19.0000117 L21.3999875,19.0000117 C21.1787826,19.0000117 21,19.2240218 21,19.5000059 C21,19.77599 21.1787826,20 21.3999875,20 L25.7999906,20 C26.4615895,20 27,19.3269738 27,18.499959 C27,17.7905451 26.6039969,17.1945131 26.0736021,17.0395284 Z" id="Shape"></path>
                <path d="M13.9999734,0 C13.9845259,0 13.969984,0.00226758255 13.9540572,0.00226758255 L13.9536311,0.00226758255 C8.27632788,0.0256289563 4,4.27186186 4,9.90000176 C4,12.6472571 5.78455097,15.0381329 7.50997558,17.3506452 C8.97726831,19.3171666 10.3635952,21.1747386 10.3635952,22.9499921 L10.3635952,25.6499974 C10.3635952,26.3942918 10.9754199,27 11.7272304,27 L16.2726631,27 C17.0244735,27 17.6362983,26.3942918 17.6362983,25.6499974 L17.6362983,22.9499921 C17.6362983,22.7016127 17.4331379,22.5000088 17.181771,22.5000088 L12.6363382,22.5000088 C12.3849712,22.5000088 12.1818109,22.7016127 12.1818109,22.9499921 C12.1818109,23.1983715 12.3849712,23.3999754 12.6363382,23.3999754 L16.7272437,23.3999754 L16.7272437,25.6500501 C16.7272437,25.8980076 16.5236039,26.1000334 16.2727164,26.1000334 L11.7272836,26.1000334 C11.4763961,26.1000334 11.2727563,25.8980076 11.2727563,25.6500501 L11.2727563,22.9500448 C11.2727563,20.8782654 9.80003036,18.904994 8.24095859,16.8156539 C6.60321147,14.6205286 4.90916112,12.3507312 4.90916112,9.90005449 C4.90916112,5.304192 8.04823859,1.73027096 12.4268924,1.03280475 C10.8731473,2.37647925 8.54543275,5.17636363 8.54543275,9.90000176 C8.54543275,13.4842588 9.70132661,15.9088846 10.6299835,17.8568962 C11.2431399,19.1429847 11.7272304,20.1586507 11.7272304,21.1500062 C11.7272304,21.3983855 11.9303907,21.5999895 12.1817577,21.5999895 C12.4331246,21.5999895 12.6362849,21.3983855 12.6362849,21.1500062 C12.6362849,19.9570468 12.0876349,18.805484 11.4517334,17.4726201 C10.5617484,15.6060305 9.45448735,13.2826548 9.45448735,9.90000176 C9.45448735,4.92387095 12.2280999,2.26932279 13.5453928,1.28967439 L13.5453928,21.1500062 C13.5453928,21.3983855 13.7485531,21.5999895 13.9999201,21.5999895 C14.2512871,21.5999895 14.4544474,21.3983855 14.4544474,21.1500062 L14.4544474,1.28972713 C15.7712609,2.26937553 18.5453529,4.92392368 18.5453529,9.90005449 C18.5453529,13.2827076 17.4376124,15.6060832 16.5476274,17.4726728 C15.9121521,18.8055895 15.3635553,19.9571523 15.3635553,21.1500589 C15.3635553,21.3984383 15.5667156,21.6000422 15.8180825,21.6000422 C16.0694495,21.6000422 16.2726098,21.3984383 16.2726098,21.1500589 C16.2726098,20.1587034 16.7567003,19.1430374 17.3698567,17.8569489 C18.2986201,15.9088846 19.454514,13.4842588 19.454514,9.90000176 C19.454514,5.17636363 17.1267994,2.37642652 15.5731609,1.03275202 C19.9518147,1.73027096 23.0908921,5.30413927 23.0908921,9.90000176 C23.0908921,12.6144035 21.3022396,14.8216579 19.7236189,16.7692476 C18.5259104,18.246604 17.3949988,19.6424856 17.1863519,21.086092 C17.1508761,21.3322565 17.3231948,21.5603859 17.5717919,21.595507 C17.821774,21.6306282 18.0508753,21.4596103 18.0863511,21.2139203 C18.2595221,20.0137891 19.3150077,18.7114584 20.432283,17.3326628 C22.1045471,15.2694263 24,12.9307577 24,9.90000176 C23.9999467,4.25609425 19.7008738,0 13.9999734,0 Z" id="Shape"></path>
            </g>
        </g>
    </g>
</svg>