<?xml version="1.0" encoding="UTF-8"?>
<svg width="33px" height="29px" viewBox="0 0 33 29" version="1.1" xmlns="http://www.w3.org/2000/svg" xmlns:xlink="http://www.w3.org/1999/xlink">
    <!-- Generator: Sketch 50.2 (55047) - http://www.bohemiancoding.com/sketch -->
    <title>Beach sports</title>
    <desc>Created with Sketch.</desc>
    <defs></defs>
    <g id="Page-1" stroke="none" stroke-width="1" fill="none" fill-rule="evenodd">
        <g id="Empty-Bag" transform="translate(-81.000000, -127.000000)" fill="#373737" stroke="#373737">
            <g id="Beach-sports" transform="translate(82.000000, 128.000000)">
                <g id="Group">
                    <path d="M4.99996909,2 C3.34584986,2 2,3.3458019 2,5 C2,6.65425992 3.34578804,8 4.99996909,8 C6.65421196,8 8,6.6541981 8,5 C8,3.3458019 6.65421196,2 4.99996909,2 Z M5.00003091,7.06943242 C3.85895203,7.06943242 2.93055799,6.14115247 2.93055799,5 C2.93055799,3.85884753 3.85889021,2.93056758 5.00003091,2.93056758 C6.14117162,2.93056758 7.06950384,3.85890936 7.06950384,5 C7.06950384,6.14109064 6.14110979,7.06943242 5.00003091,7.06943242 Z" id="Shape" stroke-width="0.5" fill-rule="nonzero"></path>
                    <path d="M5.5,0 C5.22378738,0 5,0.223201272 5,0.498542467 L5,1.50145753 C5,1.77679873 5.22378738,2 5.5,2 C5.77621262,2 6,1.77679873 6,1.50145753 L6,0.498542467 C6,0.223201272 5.77621262,0 5.5,0 Z" id="Shape" stroke-width="0.5" fill-rule="nonzero"></path>
                    <path d="M8.82883932,1.171149 C8.60054743,0.942989163 8.2306214,0.942911505 8.00232951,1.171149 L7.17116068,2.00240255 C6.94294644,2.23064005 6.94294644,2.60068145 7.17116068,2.82884129 C7.28530662,2.94299887 7.43478345,3 7.58441558,3 C7.73389242,3 7.88352455,2.94299887 7.99767049,2.82891895 L8.82883932,1.9976654 C9.05705356,1.7694279 9.05705356,1.3993865 8.82883932,1.171149 Z" id="Shape" stroke-width="0.5" fill-rule="nonzero"></path>
                    <path d="M10.501441,5 L9.49855898,5 C9.22314241,5 9,5.22385382 9,5.5 C9,5.77614618 9.22314241,6 9.49855898,6 L10.501441,6 C10.7768576,6 11,5.77614618 11,5.5 C11,5.22385382 10.7768576,5 10.501441,5 Z" id="Shape" stroke-width="0.5" fill-rule="nonzero"></path>
                    <path d="M8.82883932,8.00233942 L7.99767049,7.17117563 C7.76930095,6.94294146 7.39937492,6.94294146 7.17116068,7.17117563 C6.94294644,7.39940981 6.94294644,7.76944582 7.17116068,7.99760234 L8.00232951,8.82884378 C8.11647545,8.94292204 8.26602993,9 8.41558442,9 C8.5651389,9 8.71469338,8.9429997 8.82883932,8.82884378 C9.05705356,8.60060961 9.05705356,8.23057359 8.82883932,8.00233942 Z" id="Shape" stroke-width="0.5" fill-rule="nonzero"></path>
                    <path d="M5.5,8 C5.22378738,8 5,8.22320127 5,8.49854247 L5,9.50145753 C5,9.77679873 5.22378738,10 5.5,10 C5.77621262,10 6,9.77679873 6,9.50145753 L6,8.49854247 C6,8.22320127 5.77621262,8 5.5,8 Z" id="Shape" stroke-width="0.5" fill-rule="nonzero"></path>
                    <path d="M2.82889175,7.17117563 C2.60066976,6.94294146 2.23073115,6.94294146 2.00243151,7.17117563 L1.17123444,8.00233942 C0.942934797,8.23057359 0.942934797,8.60060961 1.17115679,8.82884378 C1.28530661,8.94292204 1.43478852,9 1.58442573,9 C1.73390764,9 1.88354486,8.9429997 1.99769468,8.82884378 L2.82889175,7.99760234 C3.05703608,7.76936816 3.05703608,7.39933215 2.82889175,7.17117563 Z" id="Shape" stroke-width="0.5" fill-rule="nonzero"></path>
                    <path d="M1.50144102,5 L0.498558982,5 C0.223142412,5 0,5.22385382 0,5.5 C0,5.77614618 0.223142412,6 0.498558982,6 L1.50144102,6 C1.77685759,6 2,5.77614618 2,5.5 C2,5.22385382 1.77685759,5 1.50144102,5 Z" id="Shape" stroke-width="0.5" fill-rule="nonzero"></path>
                    <path d="M2.82889258,2.00241708 L1.99762189,1.17117563 C1.76932335,0.942941456 1.39938654,0.942941456 1.17116566,1.17117563 C0.942944779,1.39940981 0.942944779,1.76944582 1.17116566,1.99767999 L2.0023587,2.82892144 C2.11650796,2.9429997 2.2660668,3 2.41562564,3 C2.56510682,3 2.71474331,2.9429997 2.82889258,2.82884378 C3.05703581,2.60060961 3.05703581,2.23057359 2.82889258,2.00241708 Z" id="Shape" stroke-width="0.5" fill-rule="nonzero"></path>
                    <path d="M30.7787217,25.5188127 C29.9818281,24.9849779 29.0578301,24.7432041 28.1454975,24.7919309 C27.3033396,23.6461905 25.7147168,22.6639731 23.5259935,21.9400317 C22.1673981,21.4906888 20.651198,21.1663434 19.0391229,20.9737765 L22.3148562,12.8563802 C22.8091174,13.2089296 23.2404947,13.6276682 23.5930696,14.1013745 C23.7096023,14.2579964 23.8893833,14.3466288 24.0876954,14.2989221 C25.1696018,14.105155 26.3168831,14.2293124 27.4067487,14.6583124 C28.5048165,15.0905529 29.4294221,15.7868904 30.0805588,16.6720143 C30.1678671,16.7906509 30.3062116,16.8581004 30.4503889,16.8581004 C30.4869648,16.8581004 30.5239053,16.8537798 30.5604812,16.8447785 C30.7411736,16.8005523 30.8766625,16.6524516 30.9030312,16.4704461 C30.9202863,16.3509694 31.3161206,13.5084315 30.3730448,10.411698 C30.3003789,10.1728646 30.0448335,10.0375456 29.803566,10.1093157 C29.5617517,10.1811457 29.424683,10.433001 29.4974704,10.6717744 C30.0479321,12.4794675 30.1080211,14.2273321 30.07424,15.2935614 C29.4217059,14.6698341 28.6319209,14.1682839 27.7452887,13.819275 C26.737324,13.4224995 25.6827585,13.2538158 24.656202,13.3212053 C24.663979,13.297862 24.6710268,13.2750588 24.6786822,13.2518356 C25.0359356,12.1738447 25.3023566,11.0629092 25.4334102,9.93517131 C25.5532845,8.90320686 25.5644639,7.86080095 25.4329242,6.82937657 C25.3567344,6.23205296 25.2270782,5.64127027 25.0410392,5.06783 C25.0397025,5.06368942 25.0383658,5.0592488 25.0369684,5.05510822 C26.6775388,5.9329711 27.9386187,7.22651216 28.7945684,8.91268819 C28.9076986,9.13561939 29.1824434,9.225692 29.408157,9.11395636 C29.6338707,9.00222072 29.7250675,8.73086274 29.6119372,8.50787152 C28.4773542,6.27279866 26.6971634,4.66511363 24.3193024,3.72892258 C21.048855,2.4416824 17.6449844,2.86510167 14.4762448,4.95345399 C12.1108391,6.51229219 10.7257534,8.42427982 10.6679124,8.5048711 C10.5603111,8.6548921 10.5556328,8.85436002 10.6559432,9.0091817 C10.7562536,9.16400337 10.9413205,9.24339448 11.1246255,9.20972977 C12.2138228,9.00972177 13.3699139,9.13243895 14.467921,9.56467945 C15.5500097,9.99067908 16.4637397,10.6730946 17.1133574,11.5399759 C17.2397328,11.7085996 17.4240706,11.8122941 17.6404276,11.7488052 C18.2210857,11.647151 18.8202141,11.6370695 19.4190387,11.7161606 L15.7661236,20.7687278 C15.6739547,20.7679477 15.5820896,20.7663274 15.4896169,20.7663274 C13.3823084,20.7663274 11.3683841,20.9736564 9.50380129,21.3825537 C9.25730866,21.4366213 9.10183056,21.677795 9.1566337,21.9213091 C9.21137609,22.1647632 9.45513464,22.3183847 9.70205257,22.2642571 C11.4762891,21.8751626 13.4776367,21.6695139 15.4896169,21.6695139 C16.4432645,21.6695139 17.3975196,21.7142801 18.3465497,21.8074132 C18.3499521,21.8077132 18.3532937,21.8076532 18.3567569,21.8078932 C20.1215761,21.9807174 21.7755738,22.313344 23.2355126,22.7962916 C24.9783983,23.3727923 26.3239917,24.1324986 27.1137159,24.9744765 C26.7152691,25.0967136 26.3298851,25.277939 25.9703838,25.5186927 C24.8217658,26.2880603 23.3374027,26.2880603 22.1887239,25.5186927 C20.7281776,24.5403757 18.8408108,24.5404357 17.3804468,25.5186927 C16.2318288,26.2880603 14.7474657,26.2880603 13.5987869,25.5186927 C12.1383014,24.5403757 10.2509346,24.5404357 8.79050982,25.5186927 C7.64189184,26.2880603 6.15752866,26.2880603 5.00884992,25.5186927 C4.64940935,25.277939 4.26402538,25.0966536 3.86557858,24.9744765 C4.65426994,24.1336988 5.997433,23.3748326 7.7368556,22.7986319 C7.97623962,22.7193608 8.1052275,22.463365 8.02496702,22.2268719 C7.94470655,21.9904388 7.68563714,21.8629809 7.44613161,21.942312 C5.26123601,22.6660133 3.67504349,23.6474507 2.83385777,24.7918109 C1.92146442,24.7430841 0.997527176,24.9849779 0.200633579,25.5186927 C-0.00837175609,25.6586922 -0.0628711124,25.9394716 0.0788758198,26.1459004 C0.220561995,26.3523293 0.504663433,26.4062169 0.713911797,26.2662173 C1.39257156,25.8116537 2.18849304,25.6258076 2.96308869,25.7084392 C2.99091556,25.71438 3.01898546,25.7181606 3.04717688,25.7188207 C3.55437936,25.78579 4.05028097,25.9679155 4.49569322,26.2662773 C5.95605724,27.2444742 7.84336326,27.2445942 9.30390955,26.2662773 C10.4526491,25.4968496 11.937073,25.4969096 13.0856302,26.2662773 C14.546055,27.2444742 16.433361,27.2445942 17.8938466,26.2662773 C19.0425253,25.4968496 20.5269492,25.4969096 21.6755672,26.2662773 C22.40581,26.7554058 23.2427427,27 24.0797361,27 C24.9166688,27 25.7536015,26.7554058 26.4839051,26.2662773 C26.9282844,25.9686356 27.4229709,25.7866302 27.929019,25.7193007 C27.9589724,25.7187607 27.9888042,25.7147401 28.0184538,25.7082592 C28.7924419,25.6261677 29.5875735,25.8120137 30.2656257,26.2662173 C30.4746311,26.4062169 30.7589755,26.3523893 30.9006617,26.1459004 C31.0421656,25.9396516 30.9876663,25.6588123 30.7787217,25.5188127 Z M18.260821,10.7701282 C18.2656816,10.7599268 18.2707245,10.7498453 18.2756458,10.7396439 C18.701555,9.85908066 19.1983679,9.00792152 19.7779324,8.21689079 C19.9196186,8.02354373 19.8790327,7.73172288 19.675617,7.58632253 C19.4766367,7.44404261 19.1808091,7.49126922 19.0371179,7.68743668 C18.5717772,8.32250558 18.1583234,8.99465966 17.7872781,9.68745664 C17.6532474,9.93781168 17.5170901,10.1911671 17.4021372,10.4508235 C17.4001322,10.4550241 17.3980057,10.4592247 17.3960007,10.4634253 C16.697534,9.71686076 15.8147903,9.12283761 14.8065218,8.72606207 C13.9196466,8.3769332 12.9966207,8.20452906 12.0885411,8.21389037 C12.6989703,7.53585546 13.7017099,6.54607692 15.0070211,5.68975705 C16.3012745,4.8406382 17.6372074,4.28634061 18.9775149,4.04228644 C20.2742594,3.8062134 21.58273,3.86160115 22.8811148,4.20610938 C22.8758897,4.20892977 22.8703,4.21205021 22.8650749,4.2148706 C22.162659,4.5956239 21.5114008,5.06542966 20.9201101,5.59884433 C20.6894752,5.80689345 20.4644907,6.02076339 20.2489235,6.24393462 C20.0746714,6.42443989 20.081537,6.71031991 20.2642951,6.882424 C20.4470533,7.05452809 20.7364406,7.04774714 20.9107535,6.86724187 C21.496819,6.26007688 22.1585883,5.70481916 22.8809933,5.25589632 C23.2139437,5.04892735 23.5614758,4.86194118 23.9243796,4.71120008 C24.0197079,4.92476997 24.1437136,5.24095423 24.2601855,5.6550722 C24.8114978,7.61668678 24.6625208,9.73354309 24.1792567,11.6923973 C24.0753009,12.1136563 23.9551835,12.5312547 23.8189655,12.9433924 C23.8175681,12.947653 23.8160492,12.9520336 23.8146518,12.9563542 C23.1924963,12.3062232 22.4284725,11.7753889 21.5634699,11.3933154 C21.5516222,11.3880947 21.5397745,11.382874 21.5279268,11.3777132 C20.5048943,10.9317308 19.3790603,10.7091597 18.260821,10.7701282 Z M18.093799,20.8765629 C17.8818166,20.8584403 17.668376,20.8429582 17.4537202,20.8292762 C17.2164627,20.813194 16.9787799,20.8013723 16.7411578,20.791831 L20.3270575,11.9058472 C20.5440828,11.9672358 20.7577057,12.040266 20.9668933,12.1238577 C21.0008567,12.1374796 21.5247674,12.3745128 21.5237953,12.3769131 L18.093799,20.8765629 Z" id="Shape" stroke-width="0.5" fill-rule="nonzero"></path>
                </g>
            </g>
        </g>
    </g>
</svg>