<?xml version="1.0" encoding="utf-8"?>
<!-- Generator: Adobe Illustrator 22.1.0, SVG Export Plug-In . SVG Version: 6.00 Build 0)  -->
<svg version="1.1" id="Layer_1" xmlns="http://www.w3.org/2000/svg" xmlns:xlink="http://www.w3.org/1999/xlink" x="0px" y="0px"
	 viewBox="0 0 64 64" style="enable-background:new 0 0 64 64;" xml:space="preserve">
<style type="text/css">
	.st0{fill:#373737;}
</style>
<g id="Page-1_1_">
	<g id="Profile_1_" transform="translate(-171.000000, -307.000000)">
		<g id="Group-8" transform="translate(172.000000, 308.000000)">
			<path id="Shape" class="st0" d="M32,41.2h16.1c0.6,0,1-0.4,1-1v-9.3c0-0.6-0.4-1-1-1H32c-0.6,0-1,0.4-1,1v9.3
				C31,40.8,31.4,41.2,32,41.2z M33,31.9h14.1v7.2H33V31.9z"/>
			<path id="Shape_6_" class="st0" d="M7,27.4h7.2c0.5,0,0.9-0.4,0.9-1.1c0-0.6-0.4-1.1-0.9-1.1H7c-0.5,0-0.9,0.4-0.9,1.1
				C6.1,27,6.5,27.4,7,27.4z"/>
			<path id="Shape_2_" class="st0" d="M18.3,27.4h7.2c0.5,0,0.9-0.4,0.9-1.1c0-0.6-0.4-1.1-0.9-1.1h-7.2c-0.5,0-0.9,0.4-0.9,1.1
				C17.4,27,17.8,27.4,18.3,27.4z"/>
			<path id="Shape_3_" class="st0" d="M7,32h11.8c0.5,0,0.9-0.4,0.9-1.1c0-0.6-0.4-1.1-0.9-1.1H7c-0.5,0-0.9,0.4-0.9,1.1
				C6.1,31.6,6.5,32,7,32z"/>
			<path id="Shape_4_" class="st0" d="M25.6,29.9h-2.7c-0.5,0-0.9,0.4-0.9,1.1c0,0.6,0.4,1.1,0.9,1.1h2.7c0.5,0,0.9-0.4,0.9-1.1
				C26.5,30.3,26.1,29.9,25.6,29.9z"/>
			<g>
				<path id="Shape_7_" class="st0" d="M59.5,17.5c-0.7-0.9-1.6-1.4-2.6-1.5l-2.4-0.3V13v-1.9c0-2.1-1.8-3.9-3.9-3.9H5.5
					c-2.2,0-3.9,1.7-3.9,3.9V13v7.8v21.3c0,1.8,1.2,3.2,2.8,3.7c0,2,1.5,3.7,3.5,3.8l45.3,5c0.1,0,0.3,0,0.4,0c2,0,3.7-1.5,3.9-3.3
					l2.9-31.1C60.5,19.4,60.2,18.3,59.5,17.5z M3.5,14h49v2.5v3.3h-49V14z M5.5,9.2h45.1c1.1,0,2,0.9,2,1.9v1h-49v-1
					C3.5,10,4.4,9.2,5.5,9.2z M3.5,42.2V21.8h49v20.4c0,1.1-0.9,1.9-2,1.9h-45H5.5C4.4,44.1,3.5,43.2,3.5,42.2z M58.5,19.9
					l-2.9,31.1c-0.1,1.1-1.1,1.8-2.2,1.7l-45.2-5c-1-0.1-1.7-0.9-1.8-1.7h44.2c2.2,0,3.9-1.7,3.9-3.9V20.8v-3.2l2.3,0.2
					c0.5,0,1,0.3,1.3,0.7C58.4,18.9,58.6,19.5,58.5,19.9z"/>
				<path class="st0" d="M53.6,55.3h-0.4l-45.4-5c-2.1-0.2-3.8-1.9-4-4C2.1,45.6,1,44,1,42.2V11.1c0-2.5,2-4.4,4.5-4.4h45.1
					c2.5,0,4.5,2,4.5,4.4v4.2l1.9,0.2c1.2,0.1,2.2,0.7,3,1.7c0.8,0.9,1.1,2.1,1,3.2L58,51.5C57.8,53.6,55.8,55.3,53.6,55.3z
					 M5.5,7.8c-1.9,0-3.4,1.5-3.4,3.3v31.1c0,1.5,1,2.8,2.4,3.2L5,45.5l0,0.4c0,1.7,1.3,3.1,3,3.3l45.3,5l0.3,0
					c1.7,0,3.2-1.3,3.4-2.8l2.9-31.1c0.1-0.9-0.2-1.8-0.7-2.4l0,0c-0.6-0.8-1.3-1.2-2.3-1.2L54,16.3v-5.2c0-1.8-1.5-3.3-3.4-3.3H5.5
					z M53.5,53.4c-0.1,0-0.2,0-0.2,0l-45.2-5c-1.2-0.1-2.1-1.1-2.3-2.2l-0.1-0.6h44.9c1.9,0,3.4-1.5,3.4-3.3V17l2.9,0.2c0,0,0,0,0,0
					c0.6,0,1.3,0.3,1.7,0.9c0.4,0.5,0.6,1.3,0.5,1.9l-2.9,31.1C56,52.4,54.8,53.4,53.5,53.4z M7.2,46.6c0.2,0.3,0.6,0.6,1,0.6
					l45.2,5c0.8,0.1,1.5-0.5,1.5-1.2l3-31.2c0.1-0.3-0.1-0.7-0.3-1c-0.2-0.3-0.5-0.5-0.8-0.5l-1.7-0.1v23.9c0,2.5-2,4.4-4.5,4.4H7.2
					z M50.6,44.7h-45c-1.5,0-2.6-1.1-2.6-2.5V21.2h50.2v20.9C53.1,43.5,52,44.7,50.6,44.7z M4.1,22.3v19.8c0,0.8,0.6,1.4,1.4,1.4
					h45.1c0.8,0,1.4-0.6,1.4-1.4V22.3H4.1z M53.1,20.4H3v-7h50.2V20.4z M4.1,19.3H52v-4.7H4.1V19.3z M53.1,12.6H3v-1.5
					c0-1.4,1.1-2.5,2.5-2.5h45.1c1.4,0,2.5,1.1,2.5,2.5V12.6z M4.1,11.5H52v-0.4c0-0.8-0.6-1.4-1.4-1.4H5.5c-0.8,0-1.4,0.6-1.4,1.4
					V11.5z"/>
			</g>
		</g>
	</g>
</g>
</svg>
