<?xml version="1.0" encoding="UTF-8"?>
<svg width="37px" height="26px" viewBox="0 0 37 26" version="1.1" xmlns="http://www.w3.org/2000/svg" xmlns:xlink="http://www.w3.org/1999/xlink">
    <!-- Generator: Sketch 50.2 (55047) - http://www.bohemiancoding.com/sketch -->
    <title>Group 4</title>
    <desc>Created with Sketch.</desc>
    <defs></defs>
    <g id="Page-1" stroke="none" stroke-width="1" fill="none" fill-rule="evenodd">
        <g id="Empty-Bag" transform="translate(-260.000000, -130.000000)" fill="#373737" fill-rule="nonzero" stroke="#373737" stroke-width="0.2">
            <g id="Group-4" transform="translate(261.000000, 130.000000)">
                <path d="M34.4330454,24.2958963 L33.8282937,24.2958963 C33.2428942,24.2958963 31.6003132,23.0339309 30.161987,21.8996436 L30.161987,19.7035637 L31.6285097,18.6036717 C32.224946,18.1563823 32.5809935,17.4442873 32.5809935,16.6987041 L32.5809935,16.3963283 C32.5809935,16.0832181 32.3272246,15.8293737 32.0140389,15.8293737 C31.7008531,15.8293737 31.4470842,16.0832181 31.4470842,16.3963283 L31.4470842,16.6987041 C31.4470842,17.0892225 31.260594,17.4622786 30.9481641,17.6965443 L30.161987,18.2861771 L30.161987,14.5820734 C30.161987,14.2689633 29.9082181,14.0151188 29.5950324,14.0151188 C29.2818467,14.0151188 29.0280778,14.2689633 29.0280778,14.5820734 L29.0280778,21.004838 C27.8098812,20.0485745 26.542473,19.0861123 25.3239741,18.3487689 L25.3239741,13.6560475 L26.7904968,12.5561555 C27.386933,12.1087905 27.7429806,11.3966955 27.7429806,10.6511879 L27.7429806,9.74406048 C27.7429806,9.43095032 27.4892117,9.17710583 27.1760259,9.17710583 C26.8628402,9.17710583 26.6090713,9.43095032 26.6090713,9.74406048 L26.6090713,10.6511879 C26.6090713,11.0417063 26.422581,11.4147624 26.1101512,11.6490281 L25.3239741,12.2386609 L25.3239741,8.53455724 C25.3239741,8.22144708 25.0702052,7.96760259 24.7570194,7.96760259 C24.4438337,7.96760259 24.1900648,8.22144708 24.1900648,8.53455724 L24.1900648,14.6576674 L23.4038877,14.0680346 C23.0914579,13.8336933 22.9049676,13.4607127 22.9049676,13.0701944 L22.9049676,9.74406048 C22.9049676,9.43095032 22.6511987,9.17710583 22.338013,9.17710583 C22.0248272,9.17710583 21.7710583,9.43095032 21.7710583,9.74406048 L21.7710583,13.0701944 C21.7710583,13.8157019 22.1271058,14.527797 22.7235421,14.975162 L24.1900648,16.075054 L24.1900648,17.7270842 C23.3134773,17.3011879 22.4808855,17.039406 21.7332613,17.039406 C20.7580238,17.039406 19.5548704,17.450486 18.0575054,18.2942657 C16.3333585,16.894568 14.6375594,15.8299028 13.2289417,15.8299028 C11.6532613,15.8299028 9.71828294,17.1614147 7.78617711,18.8047516 L7.78617711,13.3725702 C7.78617711,13.05946 7.53240821,12.8056156 7.21922246,12.8056156 C6.90603672,12.8056156 6.65226782,13.05946 6.65226782,13.3725702 L6.65226782,17.0766739 L5.86609071,16.487041 C5.55366091,16.2526998 5.36717063,15.8797192 5.36717063,15.4892009 L5.36717063,15.1868251 C5.36717063,14.8737149 5.11340173,14.6198704 4.80021598,14.6198704 C4.48703024,14.6198704 4.23326134,14.8737149 4.23326134,15.1868251 L4.23326134,15.4892009 C4.23326134,16.2347084 4.58930886,16.9468035 5.18574514,17.3941685 L6.65226782,18.4940605 L6.65226782,19.8000216 C6.14714903,20.254946 5.64709503,20.7175054 5.15883369,21.1692549 C4.22396328,22.0344276 3.34087473,22.8515983 2.60481641,23.4386609 C1.60780778,24.2340605 1.25576674,24.2958963 1.17170626,24.2958963 L0.566954644,24.2958963 C0.253768898,24.2958963 0,24.5497408 0,24.862851 C0,25.1759611 0.253768898,25.4298056 0.566954644,25.4298056 L34.4330454,25.4298056 C34.7462311,25.4298056 35,25.1759611 35,24.862851 C35,24.5497408 34.7462311,24.2958963 34.4330454,24.2958963 Z M29.0280778,22.4489093 L29.0280778,24.2958963 L25.3239741,24.2958963 L25.3239741,19.6907883 C26.5652268,20.5050108 27.8623434,21.5272678 29.0280778,22.4489093 Z M21.7332613,18.1732397 C22.4263067,18.1732397 23.2742441,18.4973866 24.1900648,19.0021274 L24.1900648,23.6984017 C24.086879,23.6219006 23.9748488,23.5358747 23.853067,23.4387365 C23.1170086,22.8515983 22.2339201,22.0344276 21.2990497,21.1693305 C20.5487797,20.4750756 19.7706911,19.75527 18.9889741,19.0772678 C20.1211447,18.4776566 21.0433153,18.1732397 21.7332613,18.1732397 Z M13.2289417,16.9637365 C15.0847732,16.9637365 18.1033153,19.7570842 20.5288229,22.0015443 C21.5584881,22.9543305 22.4026458,23.7269006 23.1107343,24.2958963 L7.78617711,24.2958963 L7.78617711,20.3082397 C9.75925486,18.5597516 11.8262203,16.9637365 13.2289417,16.9637365 Z M5.92906048,22.0015443 C6.1649892,21.7832289 6.40673866,21.5595464 6.65226782,21.3338985 L6.65226782,24.2958963 L3.34714903,24.2958963 C4.05516199,23.7269006 4.89939525,22.954406 5.92906048,22.0015443 Z M30.161987,24.2958963 L30.161987,23.3394816 C30.6307451,23.7032397 31.0536177,24.0227754 31.4377862,24.2958963 L30.161987,24.2958963 Z" id="Shape"></path>
                <path d="M11.4902808,5.51079914 C11.4902808,7.15723542 12.8298056,8.49676026 14.4762419,8.49676026 C16.1226782,8.49676026 17.462203,7.15723542 17.462203,5.51079914 C17.462203,3.86436285 16.1226782,2.52483801 14.4762419,2.52483801 C12.8298056,2.52483801 11.4902808,3.86436285 11.4902808,5.51079914 Z M16.3282937,5.51079914 C16.3282937,6.53199784 15.4975162,7.36285097 14.4762419,7.36285097 C13.4549676,7.36285097 12.6241901,6.53199784 12.6241901,5.51079914 C12.6241901,4.48960043 13.4549676,3.6587473 14.4762419,3.6587473 C15.4975162,3.6587473 16.3282937,4.48960043 16.3282937,5.51079914 Z" id="Shape"></path>
                <path d="M14.4762419,10.9157667 C16.9421922,10.9157667 19.0944276,9.25012959 19.7099136,6.86521598 C19.7881533,6.56200864 19.6058207,6.25275378 19.3026134,6.17451404 C18.9994816,6.09634989 18.6902268,6.27868251 18.611987,6.58181425 C18.1256911,8.46591793 16.4249784,9.78185745 14.4762419,9.78185745 C12.5260691,9.78185745 10.825054,8.46478402 10.3397408,6.57901728 C10.2616523,6.27580994 9.95285097,6.09302376 9.64934125,6.1712635 C9.34605832,6.24927646 9.16349892,6.55838013 9.24151188,6.86166307 C9.85601512,9.24861771 12.0084773,10.9157667 14.4762419,10.9157667 Z" id="Shape"></path>
                <path d="M9.64956803,4.84889849 C9.95262419,4.92691145 10.261879,4.74450324 10.3400432,4.44137149 C10.8258099,2.5562851 12.5266739,1.23974082 14.4762419,1.23974082 C16.4264147,1.23974082 18.1274298,2.55681425 18.612743,4.44258099 C18.6785853,4.69839093 18.9089201,4.86832613 19.1614795,4.86832613 C19.2081965,4.86832613 19.2557451,4.8625054 19.3031425,4.85025918 C19.6064255,4.77224622 19.7889849,4.46314255 19.7109719,4.15985961 C19.0964687,1.77298056 16.9440065,0.105831533 14.4762419,0.105831533 C12.0092333,0.105831533 9.85692225,1.77230022 9.24204104,4.15842333 C9.16395248,4.46163067 9.34636069,4.77073434 9.64956803,4.84889849 Z" id="Shape"></path>
            </g>
        </g>
    </g>
</svg>