<?xml version="1.0" encoding="UTF-8"?>
<svg width="20px" height="28px" viewBox="0 0 20 28" version="1.1" xmlns="http://www.w3.org/2000/svg" xmlns:xlink="http://www.w3.org/1999/xlink">
    <!-- Generator: Sketch 50.2 (55047) - http://www.bohemiancoding.com/sketch -->
    <title>Group</title>
    <desc>Created with Sketch.</desc>
    <defs></defs>
    <g id="Page-1" stroke="none" stroke-width="1" fill="none" fill-rule="evenodd">
        <g id="Empty-Bag" transform="translate(-269.000000, -240.000000)" fill="#373737" fill-rule="nonzero">
            <g id="Group" transform="translate(269.000000, 240.000000)">
                <path d="M1.61556718,4.65187426 C1.50434504,4.1893893 1.05809358,3.90958902 0.619012017,4.02661457 C0.179752684,4.14388977 -0.0859479563,4.61386437 0.0253334449,5.07647415 L5.384321,27.3480273 C5.47847763,27.7394231 5.81238109,28 6.17887495,28 C6.24565564,28 6.31344367,27.9913245 6.38111319,27.973287 C6.8201355,27.8561366 7.08595465,27.3860372 6.97467325,26.9235522 L1.61556718,4.65187426 Z" id="Shape"></path>
                <path d="M19.9800431,10.3466952 C19.1136213,7.15488138 18.2463765,3.96330215 17.3797784,0.771488336 C17.2858411,0.425991483 17.1211863,0.0553931788 16.5021876,0.0183274836 C11.6296748,-0.333737973 8.43028059,4.50738199 3.55770893,4.15525788 C3.17320084,4.10798739 2.92607165,4.30774334 3.01995018,4.65324019 C3.88660708,7.84499536 4.74656257,11.0386859 5.62015602,14.2285057 C5.76035657,14.7404463 6.11323871,14.9343374 6.49786437,14.9816665 C11.3703185,15.3337907 14.5698302,10.4926707 19.4424606,10.8447948 C19.82691,10.891948 20.0739216,10.6922507 19.9800431,10.3466952 Z M16.1563596,1.22325582 C16.3953766,2.10385932 16.6347462,2.98440418 16.8737632,3.86500768 C15.8488002,3.89867178 14.9441686,4.10499633 13.9855731,4.4633958 C13.7466149,3.58279229 13.5072452,2.70218879 13.2682871,1.82164394 C14.226765,1.46336176 15.1313966,1.25686127 16.1563596,1.22325582 Z M6.11576643,11.0961026 C5.84377149,10.095622 5.57224681,9.09490691 5.30054579,8.09436773 C6.3779444,8.0632255 7.33395343,7.83027465 8.33393312,7.4359238 C8.09468103,6.5553203 7.85554651,5.67471679 7.61652955,4.79411329 C8.59405364,4.35818083 9.51608535,3.83627004 10.4394691,3.29723396 C10.6784861,4.17777881 10.9178557,5.05838231 11.1569315,5.93898582 C10.2334889,6.47796325 9.31139842,7.00004999 8.33393312,7.4359238 C8.60569293,8.43646298 8.87733517,9.43711946 9.14903619,10.4376586 C8.14899772,10.8319508 7.19310626,11.0649017 6.11576643,11.0961026 Z M9.87702094,13.1181183 C9.63430057,12.2246709 9.39169778,11.3311061 9.14903619,10.4375413 C10.1197413,10.0048932 11.035248,9.48738101 11.9520479,8.95215706 C12.1947094,9.84572183 12.437371,10.7392279 12.6799738,11.6327927 C11.7632915,12.1680753 10.8476673,12.6854702 9.87702094,13.1181183 Z M11.9718582,8.940662 C11.7003335,7.94006418 11.4285737,6.93946635 11.1569315,5.93886852 C12.0801976,5.40106405 13.0029348,4.88642564 13.9855731,4.46345445 C14.2573917,5.46399362 14.5290927,6.46459145 14.8007349,7.46513063 C13.818273,7.88821912 12.8952419,8.40279888 11.9718582,8.940662 Z M15.5456496,10.1389044 C15.3029292,9.24545697 15.0603264,8.3518922 14.817606,7.45832743 C15.7705583,7.10379875 16.6705459,6.89993743 17.6888075,6.86680116 C17.9315278,7.76036593 18.1741894,8.65387205 18.4169098,9.54731952 C17.3985894,9.58051443 16.4984842,9.78431711 15.5456496,10.1389044 Z" id="Shape"></path>
            </g>
        </g>
    </g>
</svg>