<?xml version="1.0" encoding="utf-8"?>
<!-- Generator: Adobe Illustrator 22.1.0, SVG Export Plug-In . SVG Version: 6.00 Build 0)  -->
<svg version="1.1" id="Layer_1" xmlns="http://www.w3.org/2000/svg" xmlns:xlink="http://www.w3.org/1999/xlink" x="0px" y="0px"
	 viewBox="0 0 64 64" style="enable-background:new 0 0 64 64;" xml:space="preserve">
<style type="text/css">
	.st0{fill:#373737;}
</style>
<g id="Page-1">
	<g id="Profile" transform="translate(-52.000000, -308.000000)">
		<g id="Group-7" transform="translate(53.000000, 309.000000)">
			<g>
				<path id="Shape_1_" class="st0" d="M54.6,52.5l-3.4-38.1c-0.1-0.8-0.8-1.5-1.6-1.5h-7C42.6,6.6,37.4,1.4,31,1.4
					S19.4,6.6,19.3,12.9h-7c-0.8,0-1.5,0.6-1.6,1.5L7.4,52.5c0,0,0,0.1,0,0.1c0,4.3,4,7.9,8.9,7.9h29.6c4.9,0,8.9-3.5,8.9-7.9
					C54.7,52.6,54.7,52.6,54.6,52.5z M31,4.7c4.6,0,8.3,3.7,8.4,8.2H22.6C22.7,8.4,26.4,4.7,31,4.7z M45.8,57.3H16.2
					c-3.1,0-5.6-2-5.6-4.5l3.2-36.5h5.5v5c0,0.9,0.7,1.6,1.6,1.6s1.6-0.7,1.6-1.6v-5h16.8v5c0,0.9,0.7,1.6,1.6,1.6
					c0.9,0,1.6-0.7,1.6-1.6v-5h5.5l3.3,36.5C51.3,55.3,48.8,57.3,45.8,57.3z"/>
				<path class="st0" d="M45.8,61H16.2c-5.1,0-9.3-3.7-9.3-8.3l0-0.1l3.4-38.2c0.1-1.1,1-1.9,2.1-1.9h6.5C19.2,6.1,24.6,1,31,1
					c6.4,0,11.8,5.1,12.1,11.5h6.5c1.1,0,2,0.8,2.1,1.9l3.4,38.1c0,0.1,0,0.2,0,0.2C55.1,57.3,50.9,61,45.8,61z M12.4,13.4
					c-0.6,0-1.1,0.5-1.2,1.1L7.8,52.6l-0.5,0.1l0.4,0c0,4.1,3.8,7.4,8.4,7.4h29.6c4.6,0,8.4-3.3,8.4-7.4l0-0.1l-3.4-38.1
					c-0.1-0.6-0.6-1.1-1.2-1.1h-7.4l0-0.4C42.1,6.8,37.1,1.9,31,1.9s-11.1,5-11.2,11.1l0,0.4H12.4z M45.8,57.7H16.2
					c-3.3,0-6-2.2-6.1-5l3.3-37h6.3v5.4c0,0.7,0.5,1.2,1.2,1.2c0.7,0,1.2-0.5,1.2-1.2v-5.4h17.7v5.4c0,0.7,0.5,1.2,1.2,1.2
					s1.2-0.5,1.2-1.2v-5.4h6.3l3.3,36.9C51.8,55.5,49.1,57.7,45.8,57.7z M14.3,16.7L11,52.8c0,2.2,2.4,4.1,5.2,4.1h29.6
					c2.8,0,5.1-1.8,5.2-4.1l-3.2-36.1h-4.6v4.5c0,1.1-0.9,2.1-2.1,2.1c-1.1,0-2.1-0.9-2.1-2.1v-4.5H23v4.5c0,1.1-0.9,2.1-2.1,2.1
					c-1.1,0-2.1-0.9-2.1-2.1v-4.5H14.3z M39.9,13.4H22.1l0-0.5c0.1-4.8,4.1-8.7,8.9-8.7s8.8,3.9,8.9,8.7L39.9,13.4z M23.1,12.5h15.9
					c-0.3-4.1-3.8-7.3-7.9-7.3S23.4,8.4,23.1,12.5z"/>
			</g>
		</g>
	</g>
</g>
</svg>
