<?xml version="1.0" encoding="UTF-8"?>
<svg width="28px" height="20px" viewBox="0 0 28 20" version="1.1" xmlns="http://www.w3.org/2000/svg" xmlns:xlink="http://www.w3.org/1999/xlink">
    <!-- Generator: Sketch 50.2 (55047) - http://www.bohemiancoding.com/sketch -->
    <title>Group 7</title>
    <desc>Created with Sketch.</desc>
    <defs></defs>
    <g id="Page-1" stroke="none" stroke-width="1" fill="none" fill-rule="evenodd">
        <g id="Checkout" transform="translate(-174.000000, -118.000000)" fill="#848484" fill-rule="nonzero" stroke="#848484" stroke-width="0.2">
            <g id="Group-7" transform="translate(175.000000, 119.000000)">
                <path d="M25.5894336,3.95484375 C25.8161719,3.95484375 25.9999492,3.77106641 25.9999492,3.54432812 L25.9999492,1.94680078 C25.9999492,0.899742187 25.1481445,0.0478867187 24.1010859,0.0478867187 L1.89886328,0.0478867187 C0.851855469,0.0478359375 0,0.899640625 0,1.94675 L0,16.3343477 C0,17.381457 0.851855469,18.2333125 1.89886328,18.2333125 L24.1011367,18.2333125 C25.1481953,18.2333125 26,17.381457 25.9999492,16.3343477 L25.9999492,4.87616797 C25.9999492,4.64937891 25.8161211,4.46565234 25.5894336,4.46565234 C25.3626445,4.46565234 25.178918,4.64937891 25.178918,4.87616797 L25.178918,16.3342461 C25.178918,16.9286406 24.6953789,17.4121797 24.1010859,17.4121797 L1.89886328,17.4121797 C1.30451953,17.4121797 0.82103125,16.9286406 0.82103125,16.3342461 L0.82103125,1.94675 C0.82103125,1.35240625 1.30451953,0.868867187 1.89886328,0.868917969 L24.1010352,0.868917969 C24.6953281,0.868917969 25.1788672,1.35245703 25.1788672,1.94680078 L25.1788672,3.54432812 C25.178918,3.77106641 25.3626445,3.95484375 25.5894336,3.95484375 Z" id="Shape"></path>
                <path d="M18.5440937,7.03239062 C18.5433828,7.03030859 18.5426719,7.02827734 18.5419102,7.02619531 C18.3930195,6.61532422 18.1402812,6.25574219 17.805582,5.97385547 C17.8479844,4.95619922 17.6305391,4.28507422 17.0603164,3.63314453 C16.4298672,2.91245703 15.3182148,2.54703516 13.7562344,2.54703516 L9.81494922,2.54703516 C9.36716016,2.54703516 8.99584766,2.93505469 8.87387109,3.30022266 C8.86640625,3.32241406 8.86097266,3.34521484 8.85741797,3.36837109 L7.28096484,13.6940273 C7.27786719,13.7144922 7.27624219,13.7352617 7.27624219,13.7559805 C7.27624219,14.1996562 7.60169922,14.5606094 8.00185547,14.5606094 L9.96145312,14.5606094 L9.85872266,15.1873516 C9.85511719,15.2093398 9.85323828,15.2316328 9.85323828,15.253875 C9.85323828,15.6809961 10.1516797,15.9792852 10.5789023,15.9792852 L12.5436289,15.9792852 C13.0218867,15.9792852 13.388832,15.675918 13.5013125,15.1876563 C13.5033437,15.1789219 13.5050195,15.1700352 13.5064922,15.1611484 L13.9005039,12.7178086 C13.9020273,12.7082109 13.9032969,12.6986133 13.9041094,12.6889648 C13.9099492,12.6225938 13.9410781,12.5112812 14.0826562,12.5112812 L14.28375,12.5112812 C15.4301367,12.5112812 16.3722812,12.2535156 17.0840312,11.7452461 C17.9056211,11.158418 18.4256719,10.2400898 18.6297617,9.01544922 C18.7588984,8.23941016 18.7301055,7.57219531 18.5440937,7.03239062 Z M10.0964297,13.7396289 L8.10458594,13.7396289 L9.66250391,3.53513672 C9.70125,3.44845312 9.78239844,3.37776562 9.81936719,3.36816797 L13.7561836,3.36816797 C15.0524258,3.36816797 15.9812148,3.64675391 16.4423086,4.17376172 C16.7856406,4.56635156 16.9502734,4.95355859 16.9834336,5.50803906 C16.5318359,5.35335937 16.1013633,5.31466406 15.8554805,5.30658984 C15.8423789,5.30532031 15.8292773,5.30466016 15.8159727,5.30466016 L14.6664883,5.30466016 C14.6572969,5.30466016 14.648207,5.30496484 14.6391172,5.30557422 L12.2567656,5.30557422 C12.2517891,5.30557422 12.2468125,5.30567578 12.2418867,5.30582812 C11.7624609,5.32324609 11.4023203,5.63616016 11.3021797,6.12244141 C11.3008086,6.12924609 11.2995391,6.136 11.2985234,6.14285547 L10.6706133,10.2231289 L10.0964297,13.7396289 Z M16.967793,6.39594922 C16.9623086,6.42062891 16.9562656,6.44459766 16.9505273,6.46902344 C16.9460078,6.48857422 16.9413867,6.50802344 16.9366641,6.52742187 C16.9318906,6.54697266 16.9275742,6.56698047 16.9226484,6.58632812 C16.9157422,6.61339453 16.9081758,6.63954687 16.9009648,6.66615625 C16.8966484,6.68220312 16.892332,6.69825 16.8878125,6.71414453 C16.8820234,6.73496484 16.8766406,6.75624219 16.8706992,6.77675781 C16.8627266,6.80412891 16.8539922,6.83063672 16.8456641,6.85760156 C16.8423125,6.86836719 16.8389609,6.87918359 16.8356602,6.88984766 C16.8281953,6.91346094 16.8211875,6.93758203 16.8135703,6.96083984 C16.8044297,6.98851562 16.7945273,7.01522656 16.7849805,7.04249609 C16.7827461,7.04889453 16.7805117,7.05529297 16.7781758,7.06169141 C16.7691367,7.08723437 16.7605039,7.11328516 16.7510586,7.13847266 C16.7406484,7.16640234 16.7294766,7.19331641 16.7186602,7.22073828 C16.7173398,7.22403906 16.7160703,7.22728906 16.71475,7.23053906 C16.7042891,7.25694531 16.6942344,7.28375781 16.6833672,7.30970703 C16.6716367,7.3376875 16.6591953,7.36470312 16.6470078,7.39217578 C16.6348203,7.41969922 16.6229883,7.44767969 16.6103945,7.47469531 C16.59775,7.50171094 16.584293,7.52786328 16.5711914,7.55437109 C16.5582422,7.58067578 16.5455977,7.60748828 16.5321406,7.63323437 C16.5183789,7.65964062 16.5038555,7.68508203 16.4895859,7.71092969 C16.4759258,7.73576172 16.4626719,7.76110156 16.4485547,7.78547656 C16.4337266,7.81107031 16.4181367,7.83564844 16.4028008,7.86073437 C16.3883789,7.88434766 16.3744648,7.90836719 16.3596367,7.93142187 C16.3436406,7.95630469 16.3267812,7.98022266 16.3103281,8.00459766 C16.2953477,8.0266875 16.2807734,8.04933594 16.2653867,8.07091797 C16.2481211,8.09524219 16.2299922,8.1185 16.2122187,8.14216406 C16.1967305,8.16278125 16.1816484,8.18390625 16.1658047,8.20411719 C16.1474219,8.22747656 16.128125,8.24987109 16.1092852,8.27262109 C16.0931367,8.29212109 16.0773945,8.31202734 16.0608398,8.33107031 C16.0412891,8.35351562 16.0209258,8.37499609 16.0008672,8.39678125 C15.9840586,8.4150625 15.9676562,8.43390234 15.9504414,8.45172656 C15.9296211,8.47335937 15.9078867,8.49397656 15.8865586,8.51494922 C15.8692422,8.53196094 15.852332,8.54948047 15.8346602,8.56608594 C15.8126719,8.58670312 15.7897695,8.60630469 15.7672734,8.6263125 C15.7492969,8.64225781 15.7317266,8.65871094 15.7133945,8.67419922 C15.6902383,8.69380078 15.6662187,8.71238672 15.6424531,8.73132812 C15.6238672,8.74615625 15.6057383,8.76154297 15.5867969,8.77601562 C15.5622695,8.79475391 15.5368789,8.812375 15.511793,8.83035156 C15.49275,8.84401172 15.4741133,8.85828125 15.4547148,8.87158594 C15.428918,8.88925781 15.402207,8.90591406 15.3758516,8.922875 C15.35625,8.93551953 15.3371055,8.94867187 15.3171484,8.96091016 C15.2897773,8.97771875 15.2614922,8.99346094 15.2335117,9.00955859 C15.213707,9.02093359 15.1943086,9.03291797 15.1741992,9.04398828 C15.1452539,9.05988281 15.1153437,9.07471094 15.0857383,9.08984375 C15.0656289,9.10015234 15.0460781,9.11091797 15.0257148,9.12087109 C14.9958047,9.13544531 14.9649805,9.14895312 14.9344102,9.16281641 C14.9133867,9.17236328 14.8929219,9.18241797 14.8716445,9.19160937 C14.8407187,9.20491406 14.8088789,9.21715234 14.7773437,9.22974609 C14.7555586,9.23842969 14.7342305,9.24772266 14.7121406,9.25605078 C14.6801484,9.26813672 14.647293,9.27915625 14.6146914,9.29053125 C14.5920937,9.29840234 14.5699531,9.30683203 14.5470508,9.31439844 C14.5144492,9.32511328 14.4807812,9.3348125 14.4474687,9.34481641 C14.4237031,9.35197656 14.4004453,9.35969531 14.376375,9.3665 C14.3428086,9.37599609 14.3083281,9.384375 14.2742031,9.39316016 C14.2494727,9.39950781 14.22525,9.40641406 14.2002148,9.41240625 C14.1648203,9.42088672 14.1284102,9.42830078 14.0923047,9.43607031 C14.067625,9.44140234 14.0435039,9.44724219 14.0184687,9.45221875 C13.9817539,9.45948047 13.9440234,9.46572656 13.9066484,9.47232812 C13.8814102,9.47674609 13.8566289,9.48172266 13.8310352,9.48583594 C13.7932539,9.49192969 13.7545078,9.49690625 13.7160156,9.50223828 C13.6899648,9.50584375 13.6644727,9.51005859 13.6380664,9.51335937 C13.5988125,9.51823437 13.5585937,9.52204297 13.5186289,9.52620703 C13.4921719,9.52894922 13.4662734,9.53230078 13.4394609,9.5346875 C13.3995977,9.53829297 13.3587695,9.54083203 13.3182969,9.54372656 C13.2905195,9.54570703 13.2633516,9.54824609 13.2352695,9.54992187 C13.1909375,9.5525625 13.1455391,9.55403516 13.1003945,9.55576172 C13.0753086,9.55672656 13.0507812,9.55830078 13.0254922,9.5590625 C12.9546016,9.56109375 12.8827969,9.56210937 12.8100273,9.56210937 L11.6275859,9.56210937 C11.6195117,9.56236328 11.6112344,9.56251562 11.602957,9.56276953 L12.1082305,6.27955859 C12.1401211,6.13747266 12.2103008,6.12894141 12.2646367,6.12665625 L14.6681133,6.12665625 C14.6773047,6.12665625 14.6863945,6.12635156 14.6954844,6.12574219 L15.7891602,6.12574219 C15.795,6.12619922 15.8009922,6.12645312 15.8068828,6.12660547 C15.9791836,6.13087109 16.4248398,6.15981641 16.8501836,6.33455469 C16.8818203,6.34857031 16.921125,6.36735937 16.9653555,6.39102344 C16.9662187,6.39259766 16.9668789,6.39432422 16.967793,6.39594922 Z M17.8200039,8.880625 C17.504957,10.7711094 16.3483125,11.6901484 14.2839023,11.6901484 L14.0828086,11.6901484 C13.4223477,11.6901484 13.1284258,12.2274141 13.0880547,12.5991836 L12.6985625,15.0146445 C12.6623555,15.1581016 12.5994375,15.1581016 12.5437305,15.1581016 L10.6955469,15.1581016 L10.8463672,14.2380469 C10.8479414,14.2308359 10.8493125,14.2235234 10.8505312,14.2162617 L11.4353281,10.6442578 C11.4362422,10.642582 11.4370039,10.6407031 11.437918,10.6389766 C11.4392891,10.6364375 11.440457,10.6337969 11.4417266,10.631207 C11.4428945,10.6289727 11.4439609,10.6266875 11.4451289,10.6243516 C11.4471602,10.6201367 11.4494453,10.6160742 11.4513242,10.6118086 C11.4565039,10.6000273 11.4612773,10.5879414 11.4653906,10.5755508 C11.4981445,10.4773906 11.5916836,10.3936016 11.6321055,10.3832422 L12.8102812,10.3832422 C12.8933594,10.3832422 12.9753711,10.3819219 13.0564687,10.3795859 C13.0835859,10.3788242 13.110043,10.37725 13.1369062,10.3761328 C13.1905312,10.374 13.244207,10.371918 13.2969687,10.3687187 C13.3284531,10.3668398 13.3592773,10.3641992 13.3904062,10.3619141 C13.4376328,10.3584609 13.4848594,10.3551094 13.5314258,10.350793 C13.564332,10.3477969 13.5966797,10.3440391 13.6291797,10.3405859 C13.6730039,10.3359141 13.7168789,10.3312422 13.760043,10.3258086 C13.7932031,10.3216445 13.825957,10.3168711 13.8588125,10.31225 C13.9003516,10.3064102 13.9418398,10.3003672 13.9827695,10.2937656 C14.0157773,10.2884336 14.0483281,10.2826445 14.0809805,10.2768555 C14.1208437,10.2697461 14.1604531,10.2623828 14.199707,10.2545625 C14.2321055,10.2481133 14.2643008,10.2413086 14.2963437,10.2343516 C14.3348359,10.2259727 14.3730234,10.2172891 14.4109062,10.2081992 C14.4424922,10.2006328 14.4739766,10.1928633 14.5051562,10.1848398 C14.5425312,10.1751914 14.5795508,10.1650352 14.6163672,10.1546758 C14.6470391,10.146043 14.6776094,10.1373594 14.7078242,10.1282695 C14.7442852,10.11725 14.7802383,10.1056719 14.8160898,10.0939922 C14.8456445,10.0843437 14.8753008,10.0747969 14.9045,10.0646406 C14.9403008,10.0521992 14.9754922,10.0390469 15.0106836,10.0258437 C15.0388164,10.015332 15.0671016,10.0050234 15.0948281,9.99405469 C15.1306289,9.97988672 15.165668,9.96480469 15.2007578,9.949875 C15.2269102,9.93870312 15.253418,9.92798828 15.2792148,9.91635937 C15.3164375,9.89965234 15.3527461,9.88198047 15.389207,9.86435937 C15.4119062,9.85339062 15.4350625,9.84292969 15.4575078,9.83160547 C15.5075273,9.80636719 15.556582,9.78001172 15.6051797,9.75304687 C15.623918,9.74263672 15.6424531,9.73197266 15.6609375,9.72130859 C15.7056758,9.6955625 15.7500586,9.66951172 15.7935273,9.64234375 C15.8153125,9.62868359 15.8363867,9.61416016 15.8578164,9.60009375 C15.8899102,9.57912109 15.9221562,9.55835156 15.9534883,9.53646484 C15.9765937,9.52041797 15.9989883,9.50350781 16.0216875,9.48700391 C16.0504805,9.46603125 16.0793242,9.44526172 16.1075078,9.42357812 C16.1305625,9.40585547 16.1530586,9.38732031 16.175707,9.36908984 C16.2025195,9.34745703 16.2292812,9.32592578 16.2555352,9.30363281 C16.278082,9.28448828 16.3001211,9.26473437 16.3222617,9.24503125 C16.3476016,9.22248437 16.3728398,9.19988672 16.3975703,9.17667969 C16.4194062,9.15621484 16.4408359,9.13529297 16.4622148,9.11426953 C16.4862344,9.09065625 16.5101016,9.06689062 16.5336133,9.04261719 C16.5545859,9.02093359 16.5752539,8.99899609 16.5957695,8.97675391 C16.6187227,8.95197266 16.6413711,8.92683594 16.6637656,8.90139453 C16.6837227,8.87869531 16.7035781,8.85574219 16.7230781,8.83248437 C16.7450156,8.80638281 16.7665977,8.77977344 16.7879258,8.75296094 C16.8068672,8.72924609 16.825707,8.70548047 16.8441914,8.68130859 C16.8653164,8.65363281 16.8858828,8.62534766 16.9064492,8.59701172 C16.9241211,8.57258594 16.9418945,8.54826172 16.9591602,8.52332812 C16.979625,8.49377344 16.9994297,8.46350781 17.0193359,8.43324219 C17.0355352,8.40846094 17.0520391,8.38383203 17.0679844,8.35849219 C17.0881445,8.32634766 17.107543,8.29333984 17.127043,8.26048437 C17.1416172,8.23590625 17.1565469,8.21168359 17.1707148,8.18664844 C17.1916367,8.14983203 17.2116445,8.11194922 17.2317539,8.07416797 C17.2435859,8.05197656 17.2558242,8.03034375 17.2674023,8.00779687 C17.2973633,7.94944922 17.3263086,7.88998437 17.3543398,7.82955469 C17.3600273,7.81721484 17.3654102,7.80451953 17.3710469,7.79217969 C17.395168,7.73896094 17.4189336,7.68528516 17.4416328,7.63044141 C17.4516367,7.60632031 17.4608789,7.58133594 17.4706289,7.55691016 C17.4873359,7.51491406 17.5041445,7.47307031 17.5199883,7.43016016 C17.5302969,7.40228125 17.5399453,7.37369141 17.5499492,7.34540625 C17.5642695,7.30478125 17.5786914,7.26420703 17.59225,7.22282031 C17.6021016,7.19280859 17.6113945,7.16213672 17.6208906,7.13166797 C17.630082,7.10216406 17.639832,7.07321875 17.648668,7.04330859 C17.6955391,7.12511719 17.7356562,7.21169922 17.7688164,7.30269922 C17.9068906,7.70615625 17.9246133,8.25164844 17.8200039,8.880625 Z" id="Shape"></path>
            </g>
        </g>
    </g>
</svg>