<?xml version="1.0" encoding="utf-8"?>
<!-- Generator: Adobe Illustrator 22.1.0, SVG Export Plug-In . SVG Version: 6.00 Build 0)  -->
<svg version="1.1" id="Layer_1" xmlns="http://www.w3.org/2000/svg" xmlns:xlink="http://www.w3.org/1999/xlink" x="0px" y="0px"
	 viewBox="0 0 64 64" style="enable-background:new 0 0 64 64;" xml:space="preserve">
<style type="text/css">
	.st0{fill:#373737;}
</style>
<g id="Page-1_2_">
	<g id="Profile_2_" transform="translate(-303.000000, -307.000000)">
		<g id="Group-10" transform="translate(304.000000, 308.000000)">
			<path class="st0" d="M31,29.1c-8.1,0-14.7-6.3-14.7-14.1C16.3,7.3,22.9,1,31,1s14.7,6.3,14.7,14.1C45.7,22.8,39.1,29.1,31,29.1z
				 M31,5.2c-5.8,0-10.5,4.4-10.5,9.9c0,5.4,4.7,9.9,10.5,9.9s10.5-4.4,10.5-9.9C41.5,9.6,36.8,5.2,31,5.2z"/>
			<path class="st0" d="M56.1,61H5.9c-1.2,0-2.1-0.9-2.1-2.1c0-12.1,10.3-22,23-22h8.4c12.7,0,23,9.9,23,22
				C58.2,60.1,57.3,61,56.1,61z M8.1,56.8h45.8c-1.1-8.9-9.1-15.7-18.7-15.7h-8.4C17.2,41.1,9.2,48,8.1,56.8z"/>
		</g>
	</g>
</g>
</svg>
