<?xml version="1.0" encoding="UTF-8"?>
<svg width="32px" height="31px" viewBox="0 0 32 31" version="1.1" xmlns="http://www.w3.org/2000/svg" xmlns:xlink="http://www.w3.org/1999/xlink">
    <!-- Generator: Sketch 50.2 (55047) - http://www.bohemiancoding.com/sketch -->
    <title>Group 2</title>
    <desc>Created with Sketch.</desc>
    <defs></defs>
    <g id="Page-1" stroke="none" stroke-width="1" fill="none" fill-rule="evenodd">
        <g id="Empty-Bag" transform="translate(-81.000000, -352.000000)" fill="#373737" fill-rule="nonzero" stroke="#373737" stroke-width="0.5">
            <g id="Group-2" transform="translate(82.000000, 353.000000)">
                <path d="M28.7457212,2.97257254 C28.0875545,2.97257254 27.5517342,3.50315121 27.5418059,4.15903623 L26.0522513,4.15903623 C25.91122,3.05033401 24.8767026,2.03320657 23.1022487,1.27218014 C21.2592217,0.481677125 18.8146995,0.046373217 16.2187243,0.046373217 C13.6227492,0.046373217 11.1781653,0.481738791 9.33519991,1.27218014 C7.42174971,2.09289975 6.36799236,3.21116028 6.36799236,4.42111891 C6.36799236,5.63107754 7.42174971,6.74939973 9.33519991,7.57005768 C11.1781653,8.36043736 13.6227492,8.79580293 16.2187243,8.79580293 C18.8146378,8.79580293 21.2592217,8.36043736 23.102187,7.57005768 C24.8766409,6.80896958 25.9111583,5.7919038 26.0521896,4.68320158 L27.5408192,4.68320158 L27.5408192,29.0255022 C27.5408192,29.1702952 27.6581089,29.2875849 27.8029019,29.2875849 L29.6885405,29.2875849 C29.8333335,29.2875849 29.9506232,29.1702952 29.9506232,29.0255022 L29.9506232,4.17741285 C29.9506232,3.51301785 29.4100545,2.97257254 28.7457212,2.97257254 Z M22.8956659,7.08831888 C21.1164637,7.85144197 18.745263,8.27163758 16.218786,8.27163758 C13.692309,8.27163758 11.3209849,7.85144197 9.54190606,7.08831888 C7.85797862,6.3660807 6.89221938,5.39390813 6.89221938,4.42111891 C6.89221938,3.44832968 7.85797862,2.47609545 9.54190606,1.75385727 C11.3210466,0.990734181 13.692309,0.570538569 16.218786,0.570538569 C18.745263,0.570538569 21.1165254,0.990734181 22.8956659,1.75385727 C24.5795933,2.47609545 25.5453526,3.44832968 25.5453526,4.42111891 C25.5453526,5.39390813 24.5795317,6.3660807 22.8956659,7.08831888 Z M29.4264578,28.7634195 L28.0649846,28.7634195 L28.0649846,4.17741285 C28.0649846,3.80204879 28.3703572,3.49673789 28.7457212,3.49673789 C29.1210853,3.49673789 29.4264578,3.80204879 29.4264578,4.17741285 L29.4264578,28.7634195 Z" id="Shape"></path>
                <path d="M21.804847,2.20149448 C20.3087557,1.66468749 18.3248824,1.36899657 16.2187243,1.36899657 C14.1125046,1.36899657 12.1286312,1.66468749 10.6324783,2.20149448 C9.05208896,2.76864139 8.18172781,3.55686274 8.18172781,4.42111891 C8.18172781,5.28531341 9.05208896,6.07353476 10.6324783,6.64068167 C12.1286312,7.17755033 14.1125663,7.47324125 16.2187243,7.47324125 C18.3248207,7.47324125 20.308694,7.17755033 21.804847,6.64068167 C23.3852363,6.07353476 24.2555975,5.28531341 24.2555975,4.42111891 C24.2555975,3.55686274 23.3852363,2.76864139 21.804847,2.20149448 Z M21.6278024,6.14728791 C20.1870877,6.66436161 18.2660525,6.9490759 16.2187243,6.9490759 C14.1713344,6.9490759 12.2502993,6.66436161 10.8095229,6.14728791 C9.4725929,5.66758411 8.70589316,5.03840069 8.70589316,4.42111891 C8.70589316,3.80377546 9.47265457,3.17459204 10.8095229,2.69488824 C12.2502376,2.1778762 14.1713344,1.89316192 16.2187243,1.89316192 C18.2660525,1.89316192 20.1870877,2.1778762 21.6278024,2.69488824 C22.9647324,3.17459204 23.7314321,3.80377546 23.7314321,4.42111891 C23.7314321,5.03840069 22.9647324,5.66758411 21.6278024,6.14728791 Z" id="Shape"></path>
                <path d="M8.00030493,12.5093603 C6.18089616,12.5093603 4.46354547,13.1075871 3.03399239,14.2394143 C0.517320369,16.2316743 -0.479580464,19.4421562 0.215832792,22.3771122 C0.218299452,22.3956738 0.222369442,22.4138654 0.228721093,22.4315021 C0.493517095,23.515106 0.989377518,24.5598601 1.72586067,25.4901611 C3.25432684,27.4210012 5.54499109,28.5283468 8.01041824,28.5283468 C9.82976534,28.5283468 11.5470544,27.9301816 12.9765458,26.7984161 C14.6539366,25.4705511 15.7137989,23.5690025 15.9608966,21.4439745 C16.2079943,19.3189465 15.6127892,17.2249368 14.2848625,15.5476693 C12.7563347,13.6167058 10.4656704,12.5093603 8.00030493,12.5093603 Z M8.39176395,19.7208272 C7.22349188,20.0041231 6.01772657,20.0371147 4.85401782,19.8382402 C5.34556159,16.2260626 8.60161509,13.5596026 9.16407534,13.1235587 C10.5024237,13.3308816 11.7482105,13.8937735 12.7834063,14.7553163 C10.5920251,16.0213298 8.98265246,17.8413552 8.39176395,19.7208272 Z M0.763308085,18.6403066 C2.37440738,19.8474902 4.34687243,20.4891919 6.34270909,20.4891919 C7.01240741,20.4891919 7.68469572,20.4160554 8.34674739,20.2687958 C9.29382168,21.2446067 9.99065327,22.4244104 10.3996256,23.6965906 C9.92510177,23.7931603 8.72741477,24.0004215 7.22429354,23.9899998 C5.46328296,23.9765565 2.91374269,23.649724 0.708733222,22.183726 C0.443073888,21.011014 0.465582165,19.7937787 0.763308085,18.6403066 Z M3.35928324,14.6503599 C4.69534989,13.5926559 6.30022086,13.0335256 8.00030493,13.0335256 C8.14392624,13.0335256 8.28686921,13.037534 8.42913385,13.0455506 C8.03403651,13.3828048 7.4540013,13.9194884 6.84769615,14.6251383 C5.86855528,15.7647354 4.64379668,17.5726126 4.33953411,19.7343322 C3.10571054,19.4474595 1.93441681,18.8959759 0.923641016,18.1020813 C1.37103156,16.7844529 2.18934617,15.5764676 3.35928324,14.6503599 Z M2.13686797,25.1648085 C1.59173601,24.4761786 1.18794369,23.7203938 0.920372691,22.9327275 C3.11200053,24.2077443 5.52975946,24.5027569 7.23533185,24.5141652 C7.27276342,24.5144118 7.30976333,24.5145352 7.3468249,24.5145352 C8.89409935,24.5145352 10.087778,24.2990724 10.5457752,24.2023176 C10.8190812,25.2657566 10.8946843,26.3811805 10.7513714,27.486676 C9.88816353,27.8279385 8.96427584,28.0041197 8.0104799,28.0041197 C5.70618735,28.0041197 3.56537272,26.9692323 2.13686797,25.1648085 Z M12.6513166,26.3874088 C12.2280993,26.7225046 11.7776871,27.0070956 11.3060616,27.2401333 C11.553776,24.6150516 10.6509166,21.9659199 8.84581447,20.0321197 C9.1409504,18.9814457 9.78659878,17.9416867 10.6959332,17.0123723 C11.2022769,17.4809145 14.0317831,20.2916124 14.2186943,24.698178 C13.7923321,25.3305065 13.2664401,25.9004284 12.6513166,26.3874088 Z M15.4402463,21.3833564 C15.3363999,22.2770891 15.0781405,23.128272 14.6832282,23.9076134 C14.4311971,21.646734 13.5386977,19.8634002 12.7893262,18.720288 C12.0584547,17.6054808 11.3473165,16.9000776 11.0739489,16.6471832 C11.6890723,16.0823797 12.4032322,15.5664776 13.1949686,15.1242671 C13.4355296,15.3566265 13.6627707,15.6061292 13.8740402,15.8730218 C15.1149554,17.4403996 15.6711874,19.3973863 15.4402463,21.3833564 Z" id="Shape"></path>
                <path d="M10.5481185,18.060333 C10.4514254,17.9526016 10.2856659,17.9437833 10.1780578,18.0405381 C10.0703881,18.1372312 10.0614464,18.3029291 10.1582628,18.4105988 C10.877541,19.2112768 11.5355227,20.194241 12.0110332,21.1783769 C12.0562348,21.2719866 12.1498445,21.3264998 12.2472159,21.3264998 C12.2854492,21.3264998 12.3242991,21.3180515 12.3610523,21.3003532 C12.4913537,21.2373301 12.5459902,21.0806354 12.4830903,20.9503341 C11.9866133,19.9230317 11.299525,18.8965926 10.5481185,18.060333 Z" id="Shape"></path>
                <path d="M3.56185773,19.140052 C3.58196101,19.1448003 3.6020643,19.1470203 3.62192091,19.1470203 C3.74087561,19.1470203 3.84854534,19.0654972 3.87685027,18.9446925 C4.12246799,17.8962384 4.55253025,16.7943812 5.08785724,15.8420653 C5.15871206,15.7158956 5.11400384,15.5561176 4.98777249,15.4852012 C4.8616028,15.4142847 4.70182487,15.4591162 4.63090838,15.5852859 C4.07208645,16.5793501 3.62309258,17.7299239 3.36655989,18.8250594 C3.33344497,18.9660291 3.42094975,19.1069987 3.56185773,19.140052 Z" id="Shape"></path>
            </g>
        </g>
    </g>
</svg>